<svg viewBox="1 37.668212890625 126.00001525878906 52.663604736328125" width="126.00001525878906" height="52.663604736328125" xmlns="http://www.w3.org/2000/svg"><g fill="black"><path d="M126.592 58.164l-35.41-20.387a.815.815 0 0 0-.812 0L64.278 52.8 38.185 37.777a.812.812 0 0 0-.812 0L1.686 58.164c-.251.146-.686.414-.686.704v10.263c0 .291.434.56.686.704l35.549 20.388a.944.944 0 0 0 .88 0L64.243 75.2l26.109 15.023a.85.85 0 0 0 .414.108.827.827 0 0 0 .41-.108l35.413-20.388a.813.813 0 0 0 .411-.704V58.868a.815.815 0 0 0-.408-.704zM3 68.661v-8.954l33.998 19.995.004.035.607 8.799L3 68.661zm35.081 19.874L39 79.748v-.004l16.475-9.616 7.174 4.132-24.568 14.275zM64.69 73.563l-.008-.005-17.823-10.262-8.676-4.995a.8.8 0 0 0-.341-.1l.642-8.114 51.517 29.661.695 8.788L64.69 73.563zm-26.912-13.62L44.825 64l-7.047 4.057L30.732 64l7.046-4.057zm-8.674 3.119l-7.283-4.193 15.253-8.781.642 8.114a.808.808 0 0 0-.342.1l-8.27 4.76zm61.682 15.262L38.42 48.174a.814.814 0 0 0-1.276-.003l-4.688 2.7c-2.847 1.638-5.692 3.277-8.538 4.916l-2.663 1.533c-.292.168-.583.339-.877.505-.289.163-.72.562-.711.927.008.369.422.536.698.712.528.338 1.077.647 1.614.971l4.328 2.603 2.393 1.438 8.674 5.109c.126.072.266.165.405.165s.28-.008.405-.079l8.271-4.747 7.278 4.197-16.114 9.195L3.422 59.412 37.741 39.42l52.627 30.278a.806.806 0 0 0 .407.108c.14 0 .28.172.404.1l8.677-4.787 1.704-.997 3.922-2.292 1.859-1.087c.246-.144.492-.29.739-.432.312-.18.788-.375.968-.705.146-.271.161-.598.106-.894-.005-.025-.01-.051-.017-.076-.007-.023-.018-.047-.027-.07a.946.946 0 0 0-.046-.104l-.026-.037c-.017-.024-.033-.049-.052-.072l-.054-.058c-.019-.018-.037-.036-.058-.053-.022-.02-.047-.036-.071-.052-.014-.009-.024-.019-.037-.027l-17.354-9.99a.814.814 0 0 0-1.274-.003l-16.951 9.76-7.282-4.192L90.773 39.42l34.465 19.841-34.45 19.063.043.025-.045-.025zm7.035-14.325l-7.046 4.058-7.047-4.058 7.047-4.057 7.046 4.057zM90.838 58.2l.643-8.113 15.253 8.781-7.283 4.194L91.18 58.3a.8.8 0 0 0-.342-.1zm-.469.101l-8.27 4.761-7.283-4.193 15.251-8.781.644 8.113a.79.79 0 0 0-.342.1zm35.337 10.66l-34.54 19.575.539-8.799 34.001-20.057v9.281z"></path></g></svg>